<svg xmlns="http://www.w3.org/2000/svg" width="93" height="83.633" fill="#fff"><path d="M29.74 0c-1.49 0-2.724.217-3.773.664-3.24 1.381-3.667 6.061-4.079 10.586-.243 2.661-.494 5.413-1.29 6.639-.589.905-2.602 1.518-4.55 2.109-3.6 1.095-8.082 2.458-9.322 6.984-.815 2.975 2.297 6.355 4.977 8.622l-10.326.857a1.5 1.5 0 0 0-1.078 2.393L12.86 55.656c-2.004.992-5.232 2.856-7.113 5.32-3.352 4.395-3.853 19.406-3.899 21.104 0 .036.007.07.008.106h-.006v1.445h1.385v.002H93v-6.48h-.02c.001-.042.02-.08.018-.122-.08-1.395-.879-13.76-4.225-18.08-3.417-4.418-8.2-5.993-11.224-6.556l12.369-15.538a1.5 1.5 0 0 0-1.145-2.431l-8.73-.172a7.628 7.628 0 0 0 1.351-2.53c.678-2.225.239-4.617-1.31-7.107-2.011-3.234-5.397-3.785-8.12-4.228-1.37-.224-2.665-.435-3.296-.932-.818-.643-1.125-3.736-1.348-5.996-.366-3.72-.745-7.566-3.121-9.082-1.44-.918-3.053-1.363-4.932-1.363-1.784 0-3.557.399-5.271.785-1.61.362-3.13.703-4.549.703-.288 0-.564-.015-.826-.043-1.29-.142-3.54-.854-5.922-1.606C38.67 1.583 33.658 0 29.739 0Zm-6.922 23.867c.557.043 1.237.25 1.963.672 5.887 3.422 23.12 6.526 36.986.725 5.781-2.42 5.28.458 1.994 1.994-16.355 7.65-33.091 3.282-40.431-.69-2.732-1.478-2.182-2.83-.512-2.7zm-2.742 15.295c.22.002.474.05.762.149 3.009 1.04 10.364 3.105 15.06 3.492.948.079.17 3.527-.476 4.529-1.374 2.13-3.913 6.398-9.192 4.283-5.396-2.163-9.46-12.481-6.154-12.453zm36.932 2.87c4.66-.09-2.28 11.454-9.12 12.886-6.479 1.357-8.482-4.068-9.671-6.768-.447-1.015-.663-5.256.439-5.154 5.46.505 14.204-.335 17.863-.92.175-.028.338-.042.489-.045z"/></svg>