<svg viewBox="-5 -10 67.944 67.962" width="67.944" height="67.962" xmlns="http://www.w3.org/2000/svg"><path d="M19.526 38.105a27.012 27.012 0 0 1-2.48-2.188c-.793-.793-1.5-1.625-2.188-2.48l-7.98 7.043 5.605 5.606zM36.921-10a25.975 25.975 0 0 0-18.418 7.625c-4.918 4.918-7.625 11.457-7.625 18.418 0 3.48.688 6.856 1.98 9.98 0 .02.02.02.02.043 1.293 3.106 3.188 5.938 5.625 8.395 10.145 10.145 26.668 10.145 36.832 0 10.145-10.145 10.145-26.668 0-36.832C50.276-7.457 43.608-10 36.921-10zm16.957 42.98c-4.668 4.668-10.812 7-16.938 7a23.88 23.88 0 0 1-11.375-2.875c-.02-.02-.062-.043-.082-.043a23.488 23.488 0 0 1-5.5-4.082c-1.668-1.668-3-3.5-4.082-5.48-.02-.043-.043-.063-.062-.106-4.875-9.062-3.5-20.645 4.144-28.293 9.332-9.332 24.543-9.332 33.875 0 9.356 9.336 9.356 24.547.02 33.88zM-.017 57.96a4.836 4.836 0 0 0 3.48-1.625l4.876-5.543-6.168-6.168-5.543 4.875a4.878 4.878 0 0 0-1.625 3.48 4.74 4.74 0 0 0 1.418 3.563A4.74 4.74 0 0 0-.017 57.96zM3.733 43.25l5.98 5.98 1.395-1.562-5.793-5.793z"/></svg>