<svg xmlns="http://www.w3.org/2000/svg" width="83.336" height="80.462" viewBox="-5 -10 83.336 80.462" fill="#fff"><path d="M19.526 50.605a27.012 27.012 0 0 1-2.48-2.187c-.793-.793-1.5-1.625-2.188-2.481l-7.98 7.043 5.605 5.606zM36.921 2.5a25.975 25.975 0 0 0-18.418 7.625c-4.918 4.918-7.625 11.457-7.625 18.418 0 3.48.688 6.856 1.98 9.98 0 .02.02.02.02.043 1.293 3.106 3.188 5.938 5.625 8.395 10.145 10.145 26.668 10.145 36.832 0 10.145-10.145 10.145-26.668 0-36.832C50.276 5.043 43.608 2.5 36.921 2.5zm16.957 42.98c-4.668 4.668-10.812 7-16.938 7a23.88 23.88 0 0 1-11.375-2.875c-.02-.02-.062-.043-.082-.043a23.488 23.488 0 0 1-5.5-4.082c-1.668-1.668-3-3.5-4.082-5.48-.02-.043-.043-.063-.062-.106-4.875-9.062-3.5-20.645 4.144-28.293 9.332-9.332 24.543-9.332 33.875 0 9.356 9.336 9.356 24.547.02 33.88zM-.017 70.46a4.836 4.836 0 0 0 3.48-1.625l4.876-5.543-6.168-6.168-5.543 4.875a4.878 4.878 0 0 0-1.625 3.48 4.74 4.74 0 0 0 1.418 3.563A4.74 4.74 0 0 0-.017 70.46zm63.77-78.98V4.585h13.105ZM3.733 55.75l5.98 5.98 1.395-1.562-5.793-5.793z"/><path d="M21.046 21.25h2.082c.582 0 1.043-.457 1.043-1.043 0-.582-.457-1.043-1.043-1.043h-2.082c-.582 0-1.043.457-1.043 1.043 0 .586.461 1.043 1.043 1.043zm-1.043 5.21c0 .582.457 1.043 1.043 1.043h33.332c.582 0 1.043-.457 1.043-1.043 0-.582-.457-1.043-1.043-1.043H21.046c-.582 0-1.043.457-1.043 1.043zm34.375 5.208H21.046c-.582 0-1.043.457-1.043 1.043 0 .582.457 1.043 1.043 1.043h33.332c.582 0 1.043-.457 1.043-1.043a1.03 1.03 0 0 0-1.043-1.043zM26.253 20.21c0 .582.457 1.043 1.043 1.043h22.918c.582 0 1.043-.457 1.043-1.043 0-.582-.457-1.043-1.043-1.043H27.296c-.582 0-1.043.457-1.043 1.043zM25.214 15h22.918c.582 0 1.043-.457 1.043-1.043 0-.582-.457-1.043-1.043-1.043H25.214c-.582 0-1.043.457-1.043 1.043 0 .566.457 1.043 1.043 1.043zm27.082 22.918h-31.25c-.582 0-1.043.457-1.043 1.043 0 .582.457 1.043 1.043 1.043h31.25c.582 0 1.043-.457 1.043-1.043 0-.586-.46-1.043-1.043-1.043z"/><path d="M-1.872 37.918H10.44c-1.043-2.98-1.625-6.125-1.625-9.375 0-7.52 2.918-14.582 8.23-19.895 10.958-10.957 28.813-10.957 39.77 0 7.895 7.895 10.083 19.375 6.583 29.27h13.895c.582 0 1.043-.457 1.043-1.043V6.668H62.71a1.033 1.033 0 0 1-1.043-1.043V-10h-63.54c-.581 0-1.039.46-1.039 1.043v45.832c0 .563.457 1.043 1.04 1.043z"/></svg>